<svg width="23" height="18" viewBox="0 0 23 18" fill="none" xmlns="http://www.w3.org/2000/svg">
<path d="M2.05985 16.515C1.70057 16.3723 1.37984 16.1471 1.12347 15.8578C0.867102 15.5684 0.682269 15.2229 0.583854 14.849C0.150762 12.9039 -0.0426759 10.9131 0.00785401 8.921C-0.0423821 6.93128 0.150716 4.94288 0.582854 3C0.679342 2.62669 0.862059 2.28122 1.11632 1.99135C1.37058 1.70149 1.6893 1.47531 2.04685 1.331C5.43385 0.0369999 10.7809 0 11.3799 0H11.4179C12.0459 0 17.3929 0.0369999 20.7679 1.326C21.1269 1.46895 21.4474 1.69415 21.7036 1.9835C21.9598 2.27285 22.1445 2.61827 22.2429 2.992C22.6759 4.93711 22.8693 6.9279 22.8189 8.92C22.8693 10.9111 22.6762 12.9008 22.2439 14.845C22.1467 15.2175 21.9637 15.5622 21.7095 15.8513C21.4553 16.1404 21.1369 16.366 20.7799 16.51C17.3929 17.804 12.0459 17.841 11.4469 17.841C10.7819 17.842 5.43385 17.8 2.05985 16.515ZM2.64085 2.849C2.52344 2.89791 2.41897 2.9734 2.33568 3.06953C2.25239 3.16567 2.19254 3.27982 2.16085 3.403C1.76288 5.21425 1.58692 7.06722 1.63685 8.921C1.58689 10.7758 1.76319 12.6298 2.16185 14.442C2.19433 14.5669 2.25568 14.6825 2.34096 14.7794C2.42623 14.8763 2.53306 14.9519 2.65285 15C5.79585 16.2 11.1529 16.215 11.3799 16.215C11.6729 16.215 17.0309 16.201 20.1859 14.996C20.3033 14.9471 20.4077 14.8716 20.491 14.7755C20.5743 14.6793 20.6342 14.5652 20.6659 14.442C21.0639 12.6304 21.2398 10.7771 21.1899 8.923C21.24 7.06751 21.0637 5.21282 20.6649 3.4C20.6319 3.27564 20.5703 3.16071 20.4851 3.06435C20.3998 2.96799 20.2933 2.89288 20.1739 2.845C17.0309 1.645 11.6739 1.63 11.4469 1.63H11.3799C11.1539 1.629 5.79585 1.643 2.64085 2.849ZM9.39985 12.9C9.26996 12.8304 9.16137 12.7268 9.08565 12.6004C9.00993 12.474 8.96991 12.3294 8.96985 12.182V5.662C8.96967 5.51453 9.00955 5.36978 9.08523 5.24321C9.16091 5.11665 9.26956 5.01302 9.39956 4.9434C9.52956 4.87378 9.67603 4.84078 9.82333 4.84793C9.97062 4.85508 10.1132 4.90211 10.2359 4.984L15.1239 8.243C15.2354 8.31732 15.3269 8.41805 15.3902 8.53624C15.4535 8.65443 15.4866 8.78643 15.4866 8.9205C15.4866 9.05457 15.4535 9.18657 15.3902 9.30476C15.3269 9.42295 15.2354 9.52368 15.1239 9.598L10.2359 12.857C10.1131 12.9386 9.9706 12.9855 9.82338 12.9925C9.67617 12.9996 9.5298 12.9665 9.39985 12.897V12.9ZM10.5999 10.66L13.1999 8.923L10.5999 7.187V10.66Z" fill="#005CFF"/>
</svg>
