<svg width="37" height="44" viewBox="0 0 37 44" fill="none" xmlns="http://www.w3.org/2000/svg">
<path d="M35.4091 18.091C35.4091 31.4546 18.1591 42.9092 18.1591 42.9092C18.1591 42.9092 0.909088 31.4546 0.909088 18.091C0.909088 13.5341 2.72649 9.16383 5.9615 5.94162C9.1965 2.7194 13.5841 0.90918 18.1591 0.90918C22.7341 0.90918 27.1217 2.7194 30.3567 5.94162C33.5917 9.16383 35.4091 13.5341 35.4091 18.091Z" stroke="white" stroke-width="1.81818" stroke-linecap="round" stroke-linejoin="round"/>
<path d="M17.4091 24.9092C20.7228 24.9092 23.4091 22.2229 23.4091 18.9092C23.4091 15.5955 20.7228 12.9092 17.4091 12.9092C14.0954 12.9092 11.4091 15.5955 11.4091 18.9092C11.4091 22.2229 14.0954 24.9092 17.4091 24.9092Z" stroke="white" stroke-width="1.81818" stroke-linecap="round" stroke-linejoin="round"/>
</svg>
