<svg width="42" height="18" viewBox="0 0 42 18" fill="none" xmlns="http://www.w3.org/2000/svg">
<g filter="url(#filter0_d_42033_60)">
<path d="M28.3446 0.40824C27.8056 0.212773 26.9599 0 25.9133 0C23.2371 0 21.3458 1.31533 21.3343 3.19772C21.3123 4.58126 22.675 5.36109 23.7049 5.82736C24.7631 6.30483 25.1168 6.6021 25.1116 7.02562C25.1064 7.67819 24.2659 7.96936 23.4925 7.96936C22.4176 7.96936 21.8346 7.82683 20.9355 7.46033L20.6017 7.3066L20.2207 9.48118C20.8748 9.74078 22.0471 9.96882 23.257 9.9902C26.108 9.9902 27.9668 8.68607 27.9877 6.67541C28.0097 5.57285 27.2802 4.736 25.726 4.04576C24.7882 3.60087 24.201 3.29749 24.201 2.8414C24.201 2.43825 24.7024 2.01473 25.749 2.01473C26.648 1.99845 27.2813 2.18984 27.7763 2.38022L28.0327 2.49119L28.4085 0.397042L28.3446 0.40824ZM35.3016 0.180196H33.2083C32.5542 0.180196 32.0685 0.350212 31.7797 0.981407L27.7564 9.85175H30.6022L31.1758 8.39898L34.6474 8.40407C34.7343 8.74308 34.9792 9.85073 34.9792 9.85073H37.4922L35.3016 0.180196ZM17.4806 0.100787H20.1903L18.4948 9.77641H15.7851L17.4806 0.0956962V0.100787ZM10.5906 5.4293L10.868 6.77619L13.5222 0.180196H16.3952L12.1208 9.83546H9.26037L6.91591 1.65943C6.86672 1.51691 6.80706 1.42019 6.65949 1.33671C5.86928 0.933559 4.98069 0.604727 4 0.376682L4.03245 0.174087H8.40422C8.99348 0.195467 9.47283 0.376682 9.63611 0.991588L10.5906 5.4344L10.5906 5.4293ZM31.9482 6.42089L33.0335 3.71184C33.0168 3.73729 33.2565 3.15496 33.3925 2.78846L33.5778 3.62021L34.2058 6.41479H31.9482V6.42089Z" fill="#303030"/>
</g>
<defs>
<filter id="filter0_d_42033_60" x="0" y="0" width="41.4922" height="17.9902" filterUnits="userSpaceOnUse" color-interpolation-filters="sRGB">
<feFlood flood-opacity="0" result="BackgroundImageFix"/>
<feColorMatrix in="SourceAlpha" type="matrix" values="0 0 0 0 0 0 0 0 0 0 0 0 0 0 0 0 0 0 127 0" result="hardAlpha"/>
<feOffset dy="4"/>
<feGaussianBlur stdDeviation="2"/>
<feComposite in2="hardAlpha" operator="out"/>
<feColorMatrix type="matrix" values="0 0 0 0 0 0 0 0 0 0 0 0 0 0 0 0 0 0 0.25 0"/>
<feBlend mode="normal" in2="BackgroundImageFix" result="effect1_dropShadow_42033_60"/>
<feBlend mode="normal" in="SourceGraphic" in2="effect1_dropShadow_42033_60" result="shape"/>
</filter>
</defs>
</svg>
